<svg width="16" height="16" viewBox="0 0 16 16" fill="none" xmlns="http://www.w3.org/2000/svg">
<path d="M14.4993 1.97345C14.514 2.2492 14.3023 2.48462 14.0265 2.49928C12.7382 2.56775 11.3077 2.88624 10.2343 3.80572C9.20869 4.68429 8.42801 6.18267 8.50523 8.78765L9.64645 7.64643C9.84171 7.45117 10.1583 7.45117 10.3536 7.64643C10.5488 7.84169 10.5488 8.15827 10.3536 8.35354L8.35355 10.3535C8.15829 10.5488 7.84171 10.5488 7.64645 10.3535L5.64645 8.35354C5.45118 8.15827 5.45118 7.84169 5.64645 7.64643C5.84171 7.45117 6.15829 7.45117 6.35355 7.64643L7.50512 8.798C7.4259 5.97647 8.27947 4.16354 9.58376 3.04627C10.8992 1.91943 12.5892 1.57426 13.9735 1.50069C14.2492 1.48603 14.4846 1.69769 14.4993 1.97345Z" fill="white"/>
<path d="M2.5 3.99998C2.5 3.17155 3.17157 2.49998 4 2.49998H5.76667C6.04281 2.49998 6.26667 2.72384 6.26667 2.99998C6.26667 3.27612 6.04281 3.49998 5.76667 3.49998H4C3.72386 3.49998 3.5 3.72384 3.5 3.99998V12C3.5 12.2761 3.72386 12.5 4 12.5H12C12.2761 12.5 12.5 12.2761 12.5 12V6.7751C12.5 6.49895 12.7239 6.2751 13 6.2751C13.2761 6.2751 13.5 6.49895 13.5 6.7751V12C13.5 12.8284 12.8284 13.5 12 13.5H4C3.17157 13.5 2.5 12.8284 2.5 12V3.99998Z" fill="white"/>
</svg>
